<svg width="16" height="16" viewBox="0 0 16 16" fill="none" xmlns="http://www.w3.org/2000/svg">
<path d="M8 1.33203C11.3137 1.33203 14 4.01832 14 7.33203C14 8.80076 13.4723 10.1462 12.5961 11.1892C13.4327 11.7424 13.9517 12.449 13.9968 13.222L14 13.332L8 14.6654L2 13.332L2.00321 13.222C2.04833 12.449 2.56717 11.7426 3.40369 11.1893C2.52796 10.1468 2 8.8011 2 7.33203C2 4.01832 4.68629 1.33203 8 1.33203ZM8 8.66536C7.07953 8.66536 6.33333 9.1131 6.33333 9.66536C6.33333 10.2176 7.07953 10.6654 8 10.6654C8.92047 10.6654 9.66667 10.2176 9.66667 9.66536C9.66667 9.1131 8.92047 8.66536 8 8.66536ZM6 5.33203C5.26362 5.33203 4.66667 5.77974 4.66667 6.33203C4.66667 6.8843 5.26362 7.33203 6 7.33203C6.7364 7.33203 7.33333 6.8843 7.33333 6.33203C7.33333 5.77974 6.7364 5.33203 6 5.33203ZM10 5.33203C9.2636 5.33203 8.66667 5.77974 8.66667 6.33203C8.66667 6.8843 9.2636 7.33203 10 7.33203C10.7364 7.33203 11.3333 6.8843 11.3333 6.33203C11.3333 5.77974 10.7364 5.33203 10 5.33203Z" fill="#805AD5"/>
</svg>
