<svg width="196" height="40" viewBox="0 0 196 40" fill="none" xmlns="http://www.w3.org/2000/svg">
<g clip-path="url(#clip0_3540_37922)">
<path d="M61.4809 21.8463V10.6074H66.0121V30.0019H61.6185V26.5546H61.4176C60.9826 27.6408 60.2723 28.5296 59.2841 29.2185C58.2958 29.9102 57.079 30.2546 55.6365 30.2546C54.3756 30.2546 53.2662 29.9713 52.3027 29.4019C51.3392 28.8324 50.5876 28.0046 50.0453 26.9158C49.503 25.8269 49.2305 24.5074 49.2305 22.9574V10.6074H53.7617V22.2491C53.7617 23.4769 54.0948 24.4546 54.7638 25.1796C55.43 25.9046 56.3082 26.2658 57.3901 26.2658C58.0563 26.2658 58.7032 26.1019 59.3309 25.7741C59.9558 25.4463 60.4706 24.9546 60.8752 24.3019C61.2772 23.6491 61.4809 22.8296 61.4809 21.8463Z" fill="#F7FAFC"/>
<path d="M73.0821 18.6368V30.0007H68.5508V10.6063H72.8811V13.9007H73.1068C73.55 12.8146 74.2548 11.9535 75.2266 11.3118C76.1983 10.673 77.4014 10.3535 78.8356 10.3535C80.1625 10.3535 81.3187 10.6396 82.307 11.2118C83.2953 11.7841 84.0634 12.6146 84.6084 13.7007C85.1535 14.7868 85.4233 16.1035 85.415 17.6535V30.0007H80.8838V18.3591C80.8838 17.0618 80.5534 16.048 79.89 15.3174C79.2265 14.5868 78.3098 14.2174 77.1426 14.2174C76.3497 14.2174 75.6478 14.3924 75.0339 14.7424C74.42 15.0924 73.941 15.5952 73.5941 16.2507C73.2555 16.9063 73.0821 17.7035 73.0821 18.6368Z" fill="#F7FAFC"/>
<path d="M92.4492 4.14258V30.0009H87.918V4.14258H92.4492Z" fill="#F7FAFC"/>
<path d="M104.083 30.3785C102.206 30.3785 100.579 29.9618 99.2026 29.1285C97.8261 28.2952 96.7607 27.1285 96.0064 25.6313C95.2521 24.1341 94.875 22.3813 94.875 20.3785C94.875 18.3757 95.2521 16.6202 96.0064 15.1146C96.7607 13.6091 97.8261 12.4368 99.2026 11.6035C100.579 10.7702 102.206 10.3535 104.083 10.3535C105.961 10.3535 107.588 10.7702 108.964 11.6035C110.341 12.4368 111.406 13.6063 112.16 15.1146C112.915 16.6202 113.292 18.3757 113.292 20.3785C113.292 22.3813 112.915 24.1341 112.16 25.6313C111.406 27.1285 110.341 28.2952 108.964 29.1285C107.588 29.9618 105.958 30.3785 104.083 30.3785ZM104.108 26.7174C105.127 26.7174 105.977 26.4341 106.66 25.8646C107.343 25.298 107.855 24.5341 108.194 23.573C108.532 22.6146 108.7 21.5452 108.7 20.3674C108.7 19.1813 108.532 18.1063 108.194 17.1424C107.855 16.1785 107.346 15.4118 106.66 14.8368C105.977 14.2646 105.124 13.9785 104.108 13.9785C103.065 13.9785 102.2 14.2646 101.512 14.8368C100.824 15.4091 100.312 16.1785 99.9734 17.1424C99.6348 18.1063 99.4668 19.1813 99.4668 20.3674C99.4668 21.5452 99.6348 22.6146 99.9734 23.573C100.312 24.5341 100.824 25.298 101.512 25.8646C102.198 26.4341 103.065 26.7174 104.108 26.7174Z" fill="#F7FAFC"/>
<path d="M124.773 37.678C123.146 37.678 121.747 37.4558 120.58 37.0141C119.413 36.5724 118.474 35.9808 117.764 35.2391C117.054 34.4974 116.564 33.678 116.288 32.778L120.368 31.7808C120.553 32.1586 120.82 32.5363 121.169 32.9113C121.519 33.2863 121.992 33.5974 122.59 33.8447C123.187 34.0919 123.939 34.2169 124.847 34.2169C126.133 34.2169 127.195 33.903 128.038 33.2752C128.88 32.6474 129.301 31.6197 129.301 30.1891V26.5169H129.076C128.842 26.9891 128.503 27.4724 128.057 27.9697C127.611 28.4669 127.022 28.8836 126.292 29.2197C125.563 29.5558 124.646 29.7252 123.545 29.7252C122.07 29.7252 120.732 29.3724 119.534 28.6724C118.337 27.9697 117.387 26.9169 116.682 25.5169C115.977 24.1169 115.625 22.3586 115.625 20.2447C115.625 18.1141 115.977 16.3169 116.682 14.8474C117.387 13.378 118.339 12.2641 119.542 11.503C120.743 10.7419 122.083 10.3613 123.559 10.3613C124.685 10.3613 125.613 10.553 126.342 10.9363C127.072 11.3197 127.655 11.778 128.087 12.3113C128.522 12.8474 128.85 13.3502 129.076 13.8197H129.326V10.6058H133.794V30.3169C133.794 31.9752 133.403 33.3474 132.619 34.4336C131.834 35.5197 130.763 36.3308 129.403 36.8697C128.043 37.4085 126.499 37.678 124.773 37.678ZM124.811 26.1363C125.769 26.1363 126.59 25.9002 127.264 25.428C127.941 24.9558 128.454 24.278 128.803 23.3947C129.153 22.5113 129.329 21.4502 129.329 20.2141C129.329 18.9947 129.155 17.9252 128.809 17.0058C128.462 16.0891 127.952 15.3752 127.281 14.8669C126.609 14.3586 125.786 14.103 124.809 14.103C123.798 14.103 122.956 14.3669 122.282 14.8974C121.607 15.428 121.098 16.153 120.756 17.0752C120.415 17.9974 120.244 19.0419 120.244 20.2141C120.244 21.4002 120.418 22.4391 120.765 23.3252C121.112 24.2141 121.624 24.903 122.304 25.3974C122.981 25.8919 123.818 26.1363 124.811 26.1363Z" fill="#F7FAFC"/>
<path d="M146.105 37.678C144.478 37.678 143.079 37.4558 141.912 37.0141C140.745 36.5724 139.806 35.9808 139.096 35.2391C138.386 34.4974 137.896 33.678 137.62 32.778L141.7 31.7808C141.885 32.1586 142.152 32.5363 142.501 32.9113C142.851 33.2863 143.324 33.5974 143.922 33.8447C144.519 34.0919 145.271 34.2169 146.179 34.2169C147.465 34.2169 148.527 33.903 149.37 33.2752C150.212 32.6474 150.633 31.6197 150.633 30.1891V26.5169H150.408C150.174 26.9891 149.835 27.4724 149.389 27.9697C148.943 28.4669 148.354 28.8836 147.625 29.2197C146.895 29.5558 145.978 29.7252 144.877 29.7252C143.402 29.7252 142.064 29.3724 140.866 28.6724C139.669 27.9697 138.719 26.9169 138.014 25.5169C137.309 24.1169 136.957 22.3586 136.957 20.2447C136.957 18.1141 137.309 16.3169 138.014 14.8474C138.719 13.378 139.671 12.2641 140.874 11.503C142.075 10.7419 143.415 10.3613 144.891 10.3613C146.017 10.3613 146.945 10.553 147.674 10.9363C148.404 11.3197 148.987 11.778 149.419 12.3113C149.854 12.8474 150.182 13.3502 150.408 13.8197H150.658V10.6058H155.126V30.3169C155.126 31.9752 154.735 33.3474 153.951 34.4336C153.166 35.5197 152.095 36.3308 150.735 36.8697C149.373 37.4085 147.831 37.678 146.105 37.678ZM146.141 26.1363C147.099 26.1363 147.919 25.9002 148.594 25.428C149.271 24.9558 149.783 24.278 150.132 23.3947C150.482 22.5113 150.658 21.4502 150.658 20.2141C150.658 18.9947 150.485 17.9252 150.138 17.0058C149.791 16.0891 149.282 15.3752 148.61 14.8669C147.938 14.3586 147.115 14.103 146.138 14.103C145.128 14.103 144.285 14.3669 143.611 14.8974C142.936 15.428 142.427 16.153 142.086 17.0752C141.744 17.9974 141.574 19.0419 141.574 20.2141C141.574 21.4002 141.747 22.4391 142.094 23.3252C142.441 24.2141 142.953 24.903 143.633 25.3974C144.313 25.8919 145.15 26.1363 146.141 26.1363Z" fill="#F7FAFC"/>
<path d="M166.879 30.3785C164.952 30.3785 163.289 29.973 161.894 29.1591C160.495 28.348 159.422 27.1952 158.673 25.7007C157.921 24.2063 157.547 22.4452 157.547 20.4174C157.547 18.423 157.924 16.6702 158.678 15.1591C159.433 13.648 160.49 12.4702 161.85 11.623C163.21 10.7757 164.806 10.3535 166.642 10.3535C167.826 10.3535 168.947 10.5452 170.001 10.9285C171.055 11.3118 171.991 11.9035 172.803 12.7035C173.616 13.5035 174.257 14.5202 174.725 15.7535C175.193 16.9868 175.427 18.4535 175.427 20.1535V21.5563H159.672V18.473H171.086C171.077 17.598 170.89 16.8174 170.521 16.1313C170.155 15.4452 169.643 14.9035 168.988 14.5091C168.333 14.1146 167.573 13.9146 166.706 13.9146C165.781 13.9146 164.966 14.1396 164.267 14.5896C163.567 15.0396 163.022 15.6285 162.634 16.3563C162.246 17.0841 162.048 17.8813 162.04 18.748V21.4368C162.04 22.5646 162.243 23.5313 162.654 24.3341C163.061 25.1368 163.634 25.7535 164.369 26.1785C165.104 26.6035 165.962 26.8146 166.945 26.8146C167.603 26.8146 168.201 26.7202 168.735 26.5313C169.269 26.3424 169.731 26.0618 170.125 25.6924C170.516 25.323 170.813 24.8646 171.014 24.3146L175.243 24.7952C174.975 25.923 174.469 26.9063 173.723 27.7424C172.977 28.5785 172.024 29.2285 170.863 29.6868C169.698 30.1507 168.371 30.3785 166.879 30.3785Z" fill="#F7FAFC"/>
<path d="M185.682 30.3426C184.173 30.3426 182.822 29.9509 181.627 29.1676C180.435 28.3842 179.491 27.2481 178.8 25.7592C178.106 24.2704 177.762 22.4592 177.762 20.3315C177.762 18.1759 178.114 16.3565 178.819 14.8704C179.524 13.3842 180.476 12.262 181.679 11.4981C182.879 10.737 184.22 10.3565 185.696 10.3565C186.822 10.3565 187.746 10.5481 188.473 10.9315C189.2 11.3148 189.775 11.7731 190.199 12.3065C190.626 12.8426 190.954 13.3454 191.188 13.8148H191.375V4.14258H195.917V30.0009H191.463V26.9454H191.188C190.954 27.4176 190.615 27.9148 190.175 28.4426C189.734 28.9704 189.148 29.4176 188.424 29.787C187.697 30.1565 186.783 30.3426 185.682 30.3426ZM186.945 26.5926C187.903 26.5926 188.724 26.3287 189.398 25.8037C190.075 25.2787 190.587 24.5426 190.937 23.6009C191.287 22.6592 191.463 21.5592 191.463 20.3065C191.463 19.0537 191.289 17.962 190.943 17.037C190.596 16.112 190.086 15.3926 189.415 14.8787C188.743 14.3648 187.92 14.1092 186.943 14.1092C185.932 14.1092 185.09 14.3731 184.415 14.9037C183.741 15.4342 183.232 16.1648 182.89 17.1009C182.549 18.0342 182.378 19.1037 182.378 20.3092C182.378 21.5204 182.552 22.6009 182.899 23.5481C183.246 24.4954 183.758 25.2398 184.438 25.7815C185.117 26.3204 185.952 26.5926 186.945 26.5926Z" fill="#F7FAFC"/>
<path d="M39.6406 20H34.6854C34.6854 15.8583 33.0226 12.1083 30.3303 9.39444C27.6407 6.67778 23.9243 5 19.8197 5C15.7151 5 11.9987 6.67778 9.30913 9.39444L5.80469 5.85833C9.39172 2.23889 14.3469 0 19.8197 0C25.2925 0 30.2477 2.23889 33.8347 5.85833C37.4217 9.47778 39.6406 14.4778 39.6406 20Z" fill="#01CCF5"/>
<path d="M33.8359 34.1417C30.2489 37.7611 25.2936 40 19.8209 40C14.3481 40 9.39289 37.7611 5.80587 34.1417C2.21884 30.5222 0 25.5222 0 20H4.95522C4.95522 24.1417 6.61797 27.8917 9.31031 30.6056C11.9999 33.3222 15.7163 35 19.8209 35C23.9255 35 27.6419 33.3222 30.3315 30.6056L33.8359 34.1417Z" fill="#FE64D8"/>
<path d="M12.8125 12.9266C14.7478 10.9766 17.286 9.99887 19.8214 9.99609C22.3568 9.99887 24.895 10.9739 26.8303 12.9266C28.7628 14.8794 29.7318 17.4405 29.7346 19.9989C29.7318 22.5572 28.7656 25.1183 26.8303 27.0711C24.895 29.0211 22.3568 29.9989 19.8214 30.0017C17.286 29.9989 14.7478 29.0239 12.8125 27.0711L19.8214 19.9989L12.8125 12.9266Z" fill="#F7FAFC"/>
</g>
<defs>
<clipPath id="clip0_3540_37922">
<rect width="195.918" height="40" fill="white"/>
</clipPath>
</defs>
</svg>
